<svg xmlns="http://www.w3.org/2000/svg" id="prefix__Component_18_2" width="65" height="65" data-name="Component 18 – 2" viewBox="0 0 65 65">
    <g id="prefix__Group_399" data-name="Group 399">
        <rect id="prefix__Rectangle_147" width="63" height="63" data-name="Rectangle 147" rx="10" style="fill:#64e486"/>
    </g>
    <path id="prefix__Icon_awesome-volume-up" d="M15.883 5.191l-6.572 6.57H1.773A1.772 1.772 0 0 0 0 13.534v10.637a1.773 1.773 0 0 0 1.773 1.773h7.538l6.572 6.57a1.774 1.774 0 0 0 3.026-1.253V6.445a1.774 1.774 0 0 0-3.026-1.254zm17.234-3.773a1.787 1.787 0 1 0-1.962 2.989 17.258 17.258 0 0 1 0 28.893 1.787 1.787 0 1 0 1.962 2.988 20.833 20.833 0 0 0 0-34.869zm2.338 17.434a13.638 13.638 0 0 0-6.335-11.54 1.765 1.765 0 0 0-2.446.551 1.794 1.794 0 0 0 .547 2.464 10.095 10.095 0 0 1 0 17.051 1.793 1.793 0 0 0-.547 2.464 1.768 1.768 0 0 0 2.446.551 13.637 13.637 0 0 0 6.335-11.541zm-10.472-5.678a1.773 1.773 0 0 0-1.711 3.107 2.911 2.911 0 0 1 0 5.142 1.773 1.773 0 1 0 1.711 3.107 6.458 6.458 0 0 0 0-11.356z" data-name="Icon awesome-volume-up" transform="translate(12.156 13.184)" style="fill:#fff"/>
</svg>
