<svg xmlns="http://www.w3.org/2000/svg" id="prefix__Group_784" width="27" height="27" data-name="Group 784" viewBox="0 0 27 27">
    <rect id="prefix__Rectangle_1712" width="27" height="27" data-name="Rectangle 1712" rx="3" style="fill:#e8e9fc"/>
    <path id="prefix__Icon_ionic-ios-call" d="M20.582 17.477a13.918 13.918 0 0 0-2.907-1.946c-.871-.418-1.191-.41-1.807.035-.513.371-.845.716-1.436.587a8.569 8.569 0 0 1-2.886-2.135 8.508 8.508 0 0 1-2.136-2.887c-.125-.6.22-.923.587-1.436.444-.617.457-.936.035-1.807A13.643 13.643 0 0 0 8.085 4.98c-.634-.634-.776-.5-1.126-.371a6.407 6.407 0 0 0-1.031.548A3.11 3.11 0 0 0 4.69 6.464c-.246.531-.531 1.518.919 4.1a22.867 22.867 0 0 0 4.02 5.362A22.956 22.956 0 0 0 15 19.953c2.58 1.449 3.567 1.165 4.1.919a3.057 3.057 0 0 0 1.307-1.238 6.407 6.407 0 0 0 .548-1.031c.123-.35.266-.492-.373-1.126z" data-name="Icon ionic-ios-call" transform="translate(1.489 1.296)" style="fill:#5d94ff"/>
</svg>
