<?xml version="1.0" encoding="UTF-8" standalone="no"?>
<!-- Created with Inkscape (http://www.inkscape.org/) -->

<svg
   xmlns:dc="http://purl.org/dc/elements/1.1/"
   xmlns:cc="http://creativecommons.org/ns#"
   xmlns:rdf="http://www.w3.org/1999/02/22-rdf-syntax-ns#"
   xmlns:svg="http://www.w3.org/2000/svg"
   xmlns="http://www.w3.org/2000/svg"
   xmlns:sodipodi="http://sodipodi.sourceforge.net/DTD/sodipodi-0.dtd"
   xmlns:inkscape="http://www.inkscape.org/namespaces/inkscape"
   width="7.9375072mm"
   height="7.9357362mm"
   viewBox="0 0 7.9375072 7.9357362"
   version="1.1"
   id="svg6690"
   inkscape:version="0.92.4 (5da689c313, 2019-01-14)"
   sodipodi:docname="call_blue.svg">
  <defs
     id="defs6684" />
  <sodipodi:namedview
     id="base"
     pagecolor="#ffffff"
     bordercolor="#666666"
     borderopacity="1.0"
     inkscape:pageopacity="0.0"
     inkscape:pageshadow="2"
     inkscape:zoom="1.979899"
     inkscape:cx="-7.9438642"
     inkscape:cy="-91.306616"
     inkscape:document-units="mm"
     inkscape:current-layer="layer1"
     showgrid="false"
     inkscape:window-width="1920"
     inkscape:window-height="1031"
     inkscape:window-x="0"
     inkscape:window-y="0"
     inkscape:window-maximized="1" />
  <metadata
     id="metadata6687">
    <rdf:RDF>
      <cc:Work
         rdf:about="">
        <dc:format>image/svg+xml</dc:format>
        <dc:type
           rdf:resource="http://purl.org/dc/dcmitype/StillImage" />
        <dc:title></dc:title>
      </cc:Work>
    </rdf:RDF>
  </metadata>
  <g
     inkscape:label="Layer 1"
     inkscape:groupmode="layer"
     id="layer1"
     transform="translate(11.418726,-83.92408)">
    <path
       style="fill:#5d94ff;stroke-width:0.26458332"
       data-name="Icon ionic-ios-call"
       d="m -3.7098783,90.138353 a 6.6675654,6.6675654 0 0 0 -1.3926928,-0.931916 c -0.4173508,-0.200601 -0.5702978,-0.196375 -0.8658281,0.01658 -0.2459464,0.177535 -0.4050501,0.343175 -0.6882646,0.280923 A 4.1050684,4.1050684 0 0 1 -8.0401353,88.480935 4.0754772,4.0754772 0 0 1 -9.0631519,87.09746 c -0.059983,-0.285149 0.1053062,-0.442334 0.2809382,-0.688281 0.2128852,-0.29553 0.2190447,-0.448473 0.016576,-0.865827 A 6.5357512,6.5357512 0 0 0 -9.6964062,84.152573 C -9.9999975,83.848981 -10.06841,83.915082 -10.234427,83.975042 a 3.0690017,3.0690017 0 0 0 -0.493808,0.262472 1.4899223,1.4899223 0 0 0 -0.594523,0.624865 c -0.11794,0.25402 -0.254009,0.727482 0.440022,1.963383 a 10.954406,10.954406 0 0 0 1.9272603,2.568642 l 0.00156,0.0016 0.00156,0.0016 a 10.997064,10.997064 0 0 0 2.5686534,1.926096 c 1.2359019,0.694424 1.7089707,0.557994 1.9629906,0.440026 a 1.4645586,1.4645586 0 0 0 0.6260252,-0.592985 3.069386,3.069386 0 0 0 0.2624754,-0.493808 c 0.059117,-0.167178 0.1275278,-0.235574 -0.1783172,-0.539185 z"
       id="path2393"
       inkscape:connector-curvature="0" />
  </g>
</svg>
