<?xml version="1.0" encoding="UTF-8" standalone="no"?>
<!-- Created with Inkscape (http://www.inkscape.org/) -->

<svg
   xmlns:dc="http://purl.org/dc/elements/1.1/"
   xmlns:cc="http://creativecommons.org/ns#"
   xmlns:rdf="http://www.w3.org/1999/02/22-rdf-syntax-ns#"
   xmlns:svg="http://www.w3.org/2000/svg"
   xmlns="http://www.w3.org/2000/svg"
   xmlns:sodipodi="http://sodipodi.sourceforge.net/DTD/sodipodi-0.dtd"
   xmlns:inkscape="http://www.inkscape.org/namespaces/inkscape"
   width="6.6145892mm"
   height="6.612452mm"
   viewBox="0 0 6.6145891 6.6124519"
   version="1.1"
   id="svg6725"
   inkscape:version="0.92.4 (5da689c313, 2019-01-14)"
   sodipodi:docname="call_darkblue.svg">
  <defs
     id="defs6719" />
  <sodipodi:namedview
     id="base"
     pagecolor="#ffffff"
     bordercolor="#666666"
     borderopacity="1.0"
     inkscape:pageopacity="0.0"
     inkscape:pageshadow="2"
     inkscape:zoom="1.979899"
     inkscape:cx="-4.6367659"
     inkscape:cy="42.059661"
     inkscape:document-units="mm"
     inkscape:current-layer="layer1"
     showgrid="false"
     inkscape:window-width="1920"
     inkscape:window-height="1031"
     inkscape:window-x="0"
     inkscape:window-y="0"
     inkscape:window-maximized="1" />
  <metadata
     id="metadata6722">
    <rdf:RDF>
      <cc:Work
         rdf:about="">
        <dc:format>image/svg+xml</dc:format>
        <dc:type
           rdf:resource="http://purl.org/dc/dcmitype/StillImage" />
        <dc:title></dc:title>
      </cc:Work>
    </rdf:RDF>
  </metadata>
  <g
     inkscape:label="Layer 1"
     inkscape:groupmode="layer"
     id="layer1"
     transform="translate(9.7368203,-197.6661)">
    <path
       inkscape:connector-curvature="0"
       id="path2395"
       d="m -3.3127793,202.84467 a 5.5563051,5.5563051 0 0 0 -1.1605779,-0.77659 c -0.3477913,-0.16717 -0.4752478,-0.16365 -0.7215228,0.0138 -0.2049556,0.14794 -0.3375418,0.28598 -0.5735542,0.2341 a 3.4208907,3.4208907 0 0 1 -1.1528931,-0.8525 3.3962314,3.3962314 0 0 1 -0.8525137,-1.15289 c -0.049987,-0.23763 0.087755,-0.36862 0.2341155,-0.57357 0.1774042,-0.24628 0.182537,-0.37373 0.013813,-0.72153 a 5.44646,5.44646 0 0 0 -0.7756402,-1.15898 c -0.2529934,-0.25299 -0.3100032,-0.19791 -0.4483513,-0.14794 a 2.5575017,2.5575017 0 0 0 -0.4115067,0.21873 1.2416021,1.2416021 0 0 0 -0.4954357,0.52072 c -0.098284,0.21168 -0.211674,0.60623 0.3666855,1.63615 a 9.1286731,9.1286731 0 0 0 1.6060498,2.14054 l 0.0013,0.001 0.0013,0.001 a 9.1642207,9.1642207 0 0 0 2.1405447,1.60508 c 1.0299177,0.57869 1.4241418,0.46499 1.6358257,0.36669 a 1.2204657,1.2204657 0 0 0 0.5216871,-0.49416 2.557822,2.557822 0 0 0 0.2187299,-0.4115 c 0.049263,-0.13932 0.1062732,-0.19631 -0.1485977,-0.44932 z"
       data-name="Icon ionic-ios-call"
       style="fill:#08317d;fill-opacity:1;stroke-width:0.26458332" />
  </g>
</svg>
