<?xml version="1.0" encoding="UTF-8" standalone="no"?>
<!-- Created with Inkscape (http://www.inkscape.org/) -->

<svg
   xmlns:dc="http://purl.org/dc/elements/1.1/"
   xmlns:cc="http://creativecommons.org/ns#"
   xmlns:rdf="http://www.w3.org/1999/02/22-rdf-syntax-ns#"
   xmlns:svg="http://www.w3.org/2000/svg"
   xmlns="http://www.w3.org/2000/svg"
   xmlns:sodipodi="http://sodipodi.sourceforge.net/DTD/sodipodi-0.dtd"
   xmlns:inkscape="http://www.inkscape.org/namespaces/inkscape"
   width="8.2020321mm"
   height="10.776423mm"
   viewBox="0 0 8.2020321 10.776423"
   version="1.1"
   id="svg4597"
   inkscape:version="0.92.4 (5da689c313, 2019-01-14)"
   sodipodi:docname="document_blue.svg">
  <defs
     id="defs4591" />
  <sodipodi:namedview
     id="base"
     pagecolor="#ffffff"
     bordercolor="#666666"
     borderopacity="1.0"
     inkscape:pageopacity="0.0"
     inkscape:pageshadow="2"
     inkscape:zoom="7.9195959"
     inkscape:cx="35.486195"
     inkscape:cy="15.171176"
     inkscape:document-units="mm"
     inkscape:current-layer="layer1"
     showgrid="false"
     inkscape:window-width="1920"
     inkscape:window-height="1031"
     inkscape:window-x="0"
     inkscape:window-y="0"
     inkscape:window-maximized="1" />
  <metadata
     id="metadata4594">
    <rdf:RDF>
      <cc:Work
         rdf:about="">
        <dc:format>image/svg+xml</dc:format>
        <dc:type
           rdf:resource="http://purl.org/dc/dcmitype/StillImage" />
        <dc:title />
      </cc:Work>
    </rdf:RDF>
  </metadata>
  <g
     inkscape:label="Layer 1"
     inkscape:groupmode="layer"
     id="layer1"
     transform="translate(-29.96528,-37.173052)">
    <path
       style="fill:#6599ff;fill-opacity:1;stroke:#6599ff;stroke-width:0.5291667;stroke-miterlimit:4;stroke-dasharray:none;stroke-opacity:1"
       d="m 30.557706,47.645218 c -0.1301,-0.0514 -0.23989,-0.163653 -0.288403,-0.294864 -0.03898,-0.105435 -0.03944,-0.160723 -0.03944,-4.789668 0,-4.662288 1.49e-4,-4.683481 0.0403,-4.791987 0.02612,-0.07066 0.07016,-0.136844 0.125201,-0.188188 0.166548,-0.155351 -0.01793,-0.146001 2.763436,-0.140051 l 2.481684,0.0053 0.07913,0.04389 c 0.119096,0.06606 2.073514,2.037003 2.130199,2.148217 l 0.04592,0.09009 0.0051,3.752823 c 0.0047,3.440378 0.0024,3.761092 -0.02744,3.852127 -0.04501,0.137125 -0.163199,0.261329 -0.296821,0.31192 -0.106859,0.04046 -0.134403,0.04077 -3.514563,0.03985 -3.313971,-9.57e-4 -3.409515,-0.0019 -3.504351,-0.03946 z m 6.94729,-0.330694 c 0.02386,-0.01693 0.05193,-0.06421 0.06236,-0.105102 0.02484,-0.09742 0.0258,-7.274803 9.52e-4,-7.371352 -0.01433,-0.05572 -0.214522,-0.268827 -0.977878,-1.040923 l -0.959866,-0.970855 v 0.874821 c 0,0.635618 0.0065,0.889175 0.02362,0.927314 0.04744,0.105363 0.07738,0.109547 0.783813,0.109547 0.618725,0 0.653627,0.0019 0.700883,0.03959 0.09803,0.07803 0.07221,0.236583 -0.04528,0.278029 -0.08465,0.02986 -1.194892,0.03081 -1.353415,0.0012 -0.18852,-0.03527 -0.311452,-0.132885 -0.389145,-0.30901 -0.04348,-0.09857 -0.04398,-0.110238 -0.03915,-0.912027 0.0027,-0.446698 -0.0014,-0.867854 -0.0089,-0.935899 l -0.01383,-0.12372 h -2.307638 c -2.56381,0 -2.374308,-0.01065 -2.414478,0.13572 -0.02848,0.103754 -0.02848,9.194 0,9.297757 0.04054,0.147734 -0.269375,0.13572 3.500689,0.13572 3.020679,0 3.398623,-0.0034 3.437252,-0.03076 z"
       id="path5167"
       inkscape:connector-curvature="0" />
  </g>
</svg>
