<svg xmlns="http://www.w3.org/2000/svg" id="prefix__Group_218" width="33" height="30.462" data-name="Group 218" viewBox="0 0 33 30.462">
    <defs>
        <style>
            .prefix__cls-2{fill:none;stroke:#5d94ff;stroke-linecap:round;stroke-linejoin:round;stroke-width:3px}
        </style>
    </defs>
    <path id="prefix__Icon_ionic-md-heart-empty" d="M27.3 4.5a9.761 9.761 0 0 0-7.425 3.482A9.761 9.761 0 0 0 12.45 4.5a8.972 8.972 0 0 0-9.075 9.131c0 6.306 5.608 11.368 14.1 19.173l2.4 2.158 2.4-2.158c8.5-7.806 14.1-12.867 14.1-19.173A8.972 8.972 0 0 0 27.3 4.5zm-6.41 26.122l-.333.309-.682.619-.682-.619-.333-.309a100.829 100.829 0 0 1-9.733-9.678c-2.221-2.753-3.2-5.006-3.2-7.314a6.6 6.6 0 0 1 1.88-4.7 6.456 6.456 0 0 1 4.643-1.892 7.275 7.275 0 0 1 5.481 2.578l1.944 2.308 1.944-2.308A7.248 7.248 0 0 1 27.3 7.038a6.488 6.488 0 0 1 4.656 1.888 6.612 6.612 0 0 1 1.88 4.7c0 2.3-.992 4.561-3.2 7.314a101.033 101.033 0 0 1-9.746 9.682z" data-name="Icon ionic-md-heart-empty" transform="translate(-3.375 -4.5)" style="fill:#5d94ff"/>
    <g id="prefix__Group_217" data-name="Group 217" transform="translate(12.492 9.853)">
        <path id="prefix__Path_740" d="M30 12v9.028" class="prefix__cls-2" data-name="Path 740" transform="translate(-25.486 -12)"/>
        <path id="prefix__Path_741" d="M34.528 16.5H25.5" class="prefix__cls-2" data-name="Path 741" transform="translate(-25.5 -11.986)"/>
    </g>
</svg>
