<?xml version="1.0" encoding="UTF-8" standalone="no"?>
<!-- Created with Inkscape (http://www.inkscape.org/) -->

<svg
   xmlns:dc="http://purl.org/dc/elements/1.1/"
   xmlns:cc="http://creativecommons.org/ns#"
   xmlns:rdf="http://www.w3.org/1999/02/22-rdf-syntax-ns#"
   xmlns:svg="http://www.w3.org/2000/svg"
   xmlns="http://www.w3.org/2000/svg"
   xmlns:sodipodi="http://sodipodi.sourceforge.net/DTD/sodipodi-0.dtd"
   xmlns:inkscape="http://www.inkscape.org/namespaces/inkscape"
   width="8.7320013mm"
   height="8.0599012mm"
   viewBox="0 0 8.7320013 8.0599012"
   version="1.1"
   id="svg9307"
   inkscape:version="0.92.4 (5da689c313, 2019-01-14)"
   sodipodi:docname="healthtip.svg">
  <defs
     id="defs9301" />
  <sodipodi:namedview
     id="base"
     pagecolor="#ffffff"
     bordercolor="#666666"
     borderopacity="1.0"
     inkscape:pageopacity="0.0"
     inkscape:pageshadow="2"
     inkscape:zoom="1.979899"
     inkscape:cx="-49.532262"
     inkscape:cy="18.42257"
     inkscape:document-units="mm"
     inkscape:current-layer="layer1"
     showgrid="false"
     inkscape:window-width="1920"
     inkscape:window-height="1031"
     inkscape:window-x="0"
     inkscape:window-y="0"
     inkscape:window-maximized="1" />
  <metadata
     id="metadata9304">
    <rdf:RDF>
      <cc:Work
         rdf:about="">
        <dc:format>image/svg+xml</dc:format>
        <dc:type
           rdf:resource="http://purl.org/dc/dcmitype/StillImage" />
        <dc:title></dc:title>
      </cc:Work>
    </rdf:RDF>
  </metadata>
  <g
     inkscape:label="Layer 1"
     inkscape:groupmode="layer"
     id="layer1"
     transform="translate(12.681476,-57.868859)">
    <g
       transform="translate(193.21209,-622.81269)"
       id="g9288">
      <path
         style="fill:#0f367f;fill-opacity:1;stroke-width:0.26458332"
         data-name="Icon ionic-md-heart-empty"
         d="m -199.56304,680.68171 a 2.5825979,2.5825979 0 0 0 -1.96453,0.92128 2.5825979,2.5825979 0 0 0 -1.96453,-0.92128 2.3738416,2.3738416 0 0 0 -2.40109,2.41592 c 0,1.66846 1.48378,3.00778 3.73062,5.07285 l 0.635,0.57097 0.635,-0.57097 c 2.24896,-2.06534 3.73063,-3.40439 3.73063,-5.07285 a 2.3738416,2.3738416 0 0 0 -2.4011,-2.41592 z m -1.69597,6.91145 -0.0881,0.0818 -0.18045,0.16377 -0.18044,-0.16377 -0.0881,-0.0818 a 26.677673,26.677673 0 0 1 -2.57519,-2.56064 c -0.58764,-0.72839 -0.84666,-1.3245 -0.84666,-1.93516 a 1.74625,1.74625 0 0 1 0.49741,-1.24354 1.70815,1.70815 0 0 1 1.22846,-0.50059 1.9248437,1.9248437 0 0 1 1.45018,0.68209 l 0.51435,0.61066 0.51435,-0.61066 a 1.9177,1.9177 0 0 1 1.45018,-0.68209 1.7166166,1.7166166 0 0 1 1.2319,0.49953 1.749425,1.749425 0 0 1 0.49742,1.24354 c 0,0.60854 -0.26247,1.20677 -0.84667,1.93516 a 26.731648,26.731648 0 0 1 -2.57862,2.5617 z"
         id="prefix__Icon_ionic-md-heart-empty-6"
         inkscape:connector-curvature="0" />
      <path
         style="fill:#0f367f;fill-opacity:1;stroke-width:0.35277778"
         inkscape:connector-curvature="0"
         d="m -200.22354,684.42801 h -0.96384 c -0.0313,0 -0.0567,-0.0254 -0.0567,-0.0567 v -0.96384 c 0,-0.15656 -0.12692,-0.28348 -0.28348,-0.28348 -0.15655,0 -0.28348,0.12692 -0.28348,0.28348 v 0.96384 c 0,0.0313 -0.0254,0.0567 -0.0567,0.0567 h -0.96384 c -0.15655,0 -0.28348,0.12693 -0.28348,0.28348 0,0.15656 0.12693,0.28349 0.28348,0.28349 h 0.96384 c 0.0313,0 0.0567,0.0254 0.0567,0.0567 v 0.96383 c 0,0.15655 0.12693,0.28349 0.28348,0.28349 0.15656,0 0.28348,-0.12694 0.28348,-0.28349 v -0.96383 c 0,-0.0313 0.0254,-0.0567 0.0567,-0.0567 h 0.96384 c 0.15655,0 0.28348,-0.12693 0.28348,-0.28349 0,-0.15655 -0.12693,-0.28348 -0.28348,-0.28348 z m 0,0"
         id="path9275" />
    </g>
  </g>
</svg>
