<svg xmlns="http://www.w3.org/2000/svg" width="141" height="150.239" viewBox="0 0 141 150.239">
    <defs>
        <style>
            .prefix__cls-1{fill:#e1e1e1}
        </style>
    </defs>
    <g id="prefix__hiring" transform="translate(-15.742)">
        <path id="prefix__Path_2000" d="M199.454 368.986h-33.712a2.955 2.955 0 0 0 0 5.91h33.712a2.955 2.955 0 0 0 0-5.91z" class="prefix__cls-1" data-name="Path 2000" transform="translate(-103.897 -260.713)"/>
        <path id="prefix__Path_2001" d="M119.127 423.572a2.955 2.955 0 0 0 2.955 2.955h16.495a2.955 2.955 0 0 0 0-5.91h-16.495a2.955 2.955 0 0 0-2.955 2.955z" class="prefix__cls-1" data-name="Path 2001" transform="translate(-73.048 -297.193)"/>
        <path id="prefix__Path_2002" d="M265.124 423.572a2.955 2.955 0 0 0 2.955 2.955h16.495a2.955 2.955 0 0 0 0-5.91h-16.495a2.955 2.955 0 0 0-2.955 2.955z" class="prefix__cls-1" data-name="Path 2002" transform="translate(-176.205 -297.193)"/>
        <path id="prefix__Path_2003" d="M223.087 420.617a2.955 2.955 0 0 0 0 5.91h.058a2.955 2.955 0 0 0 0-5.91z" class="prefix__cls-1" data-name="Path 2003" transform="translate(-144.415 -297.193)"/>
        <path id="prefix__Path_2004" d="M18.7 152.163a2.955 2.955 0 0 0 2.955-2.955v-.058a2.955 2.955 0 1 0-5.909 0v.058a2.955 2.955 0 0 0 2.954 2.955z" class="prefix__cls-1" data-name="Path 2004" transform="translate(0 -103.296)"/>
        <path id="prefix__Path_2005" d="M153.265 116.581L139.989 103.3V28.475c0-.094-.005-.188-.014-.282 0-.039-.011-.078-.016-.116s-.014-.1-.024-.157-.021-.093-.032-.139-.021-.085-.033-.126-.03-.1-.047-.144l-.042-.114c-.015-.038-.038-.094-.059-.14s-.035-.075-.054-.112-.045-.087-.069-.129-.045-.076-.069-.114-.048-.077-.074-.114-.058-.079-.088-.118l-.076-.1-.021-.027-22-25.519c-.019-.022-.04-.041-.06-.062-.042-.046-.085-.092-.13-.135s-.061-.057-.093-.084-.09-.078-.138-.115-.065-.05-.1-.074c-.05-.036-.1-.07-.155-.1-.032-.02-.064-.04-.1-.059-.058-.033-.118-.064-.178-.093-.03-.014-.059-.03-.089-.043-.067-.03-.135-.056-.2-.08l-.079-.029c-.074-.024-.15-.044-.226-.063-.024-.006-.047-.013-.071-.018-.08-.017-.162-.03-.244-.04l-.063-.01a3.079 3.079 0 0 0-.309-.019h-86.08a13.234 13.234 0 0 0-13.214 13.225v19.457a2.955 2.955 0 1 0 5.909 0V13.225a7.317 7.317 0 0 1 7.3-7.314h83.126v19.047a6.483 6.483 0 0 0 6.48 6.473h15.523V97.4l-6.49-6.49c-.016-.017-.03-.035-.047-.052s-.035-.031-.052-.047l-13.932-13.936a39.327 39.327 0 1 0-63.6 8.618 2.941 2.941 0 0 0 .467.493 39.249 39.249 0 0 0 46.463 7.568l13.927 13.932c.017.018.031.036.048.053s.036.031.053.048l23.166 23.175v6.252a7.317 7.317 0 0 1-7.3 7.314H28.956a7.318 7.318 0 0 1-7.3-7.314V59.025a2.955 2.955 0 1 0-5.909 0v77.989a13.234 13.234 0 0 0 13.214 13.225h97.82a13.234 13.234 0 0 0 13.214-13.225v-1.225a10.56 10.56 0 0 0 4.849 1.2 11.7 11.7 0 0 0 8.156-3.526c4.155-4.158 5.662-11.488.268-16.882zm-35.274-91.623v-14.05l12.595 14.612h-12.024a.574.574 0 0 1-.571-.562zm-39.286.311a33.407 33.407 0 0 1 28.895 50.18 2.939 2.939 0 0 0-.486.807q-.872 1.406-1.877 2.717a30.759 30.759 0 0 0-16.016-14.061 17.551 17.551 0 1 0-21.963-.01 30.732 30.732 0 0 0-15.617 13.366 33.4 33.4 0 0 1 27.064-53zM66.6 51.234a11.64 11.64 0 1 1 11.648 11.638A11.659 11.659 0 0 1 66.6 51.234zM55.823 83.02a24.771 24.771 0 0 1 45.11.6 33.627 33.627 0 0 1-4.662 3.48 2.944 2.944 0 0 0-.817.492 33.344 33.344 0 0 1-39.631-4.572zm50.4 3.732a2.944 2.944 0 0 0 .536-.536 39.65 39.65 0 0 0 3.583-4.2l10.931 10.931-8.32 8.322-10.93-10.934a39.632 39.632 0 0 0 4.2-3.583zm42.6 42.533c-1.9 1.9-5.011 2.845-8.056-.2l-23.637-23.638 8.321-8.322 9.44 9.44c.037.039.075.077.114.114l14.082 14.082c3.027 3.027 1.5 6.756-.269 8.524z" class="prefix__cls-1" data-name="Path 2005"/>
    </g>
</svg>
