<svg xmlns="http://www.w3.org/2000/svg" id="prefix__search" width="40.424" height="40.424" viewBox="0 0 40.424 40.424">
    <path id="prefix__Path_600" d="M8.959 151.78l-1.407 5.253-5.143.109a20.247 20.247 0 0 1-.149-18.874l4.579.839 2.006 4.551a12.063 12.063 0 0 0 .113 8.121z" data-name="Path 600" transform="translate(0 -127.351)" style="fill:#fbbb00"/>
    <path id="prefix__Path_601" d="M281.043 208.176a20.2 20.2 0 0 1-7.205 19.538l-5.767-.294-.816-5.1a12.046 12.046 0 0 0 5.183-6.151h-10.81v-8h19.415z" data-name="Path 601" transform="translate(-240.972 -191.74)" style="fill:#518ef8"/>
    <path id="prefix__Path_602" d="M60.965 320.953a20.219 20.219 0 0 1-30.457-6.184l6.55-5.362a12.021 12.021 0 0 0 17.322 6.155z" data-name="Path 602" transform="translate(-28.1 -284.98)" style="fill:#28b446"/>
    <path id="prefix__Path_603" d="M59.477 4.653l-6.547 5.361a12.019 12.019 0 0 0-17.72 6.294l-6.584-5.391a20.216 20.216 0 0 1 30.851-6.264z" data-name="Path 603" transform="translate(-26.364)" style="fill:#f14336"/>
</svg>
