<svg xmlns="http://www.w3.org/2000/svg" width="60.143" height="64.25" viewBox="0 0 60.143 64.25">
    <g id="prefix__Layer_2" data-name="Layer 2" transform="translate(-23)">
        <g id="prefix__Layer_1" data-name="Layer 1" transform="translate(23)">
            <g id="prefix__SvgjsG1416">
                <g id="prefix__SvgjsG1417">
                    <path id="prefix__Path_604" d="M35.64 15.413H24.5v11.14H13.354v11.136H24.5V48.84h11.14V37.689h11.145V26.553H35.64zm0 37.6l-11.16 2.7a.317.317 0 0 0-.232.234 3.814 3.814 0 0 1-.136.46 3.627 3.627 0 0 1-3.535 2.358 5.779 5.779 0 0 1-1.288-.153c-4.224-.972-6.508-1.642-7.278-1.88l.4-1.191c.763.236 3.026.9 7.163 1.849 1.618.372 2.912-.179 3.363-1.415a2.542 2.542 0 0 0-1.187-3.125l-.069-.036c-5.29-2.721-9.5-4.415-10.989-4.415a26.479 26.479 0 0 0-4.643.7A41.505 41.505 0 0 1 .3 50a.313.313 0 0 0-.3.312v9.955a.313.313 0 0 0 .313.313h1.266c3.287 0 7.429 1.17 11.082 2.2a32.1 32.1 0 0 0 6.575 1.464c4.457 0 6.185-.832 17.43-6.237l.32-.156a2.773 2.773 0 0 0 1.732-3.389 2.431 2.431 0 0 0-3.076-1.459zM59.825 3.666h-1.266c-3.289 0-7.429-1.171-11.083-2.2A32 32 0 0 0 40.9 0c-4.457 0-6.185.831-17.432 6.237l-.316.154a2.777 2.777 0 0 0-1.733 3.39 2.432 2.432 0 0 0 3.081 1.458l11.16-2.706a.317.317 0 0 0 .231-.235 3.9 3.9 0 0 1 .138-.459 3.625 3.625 0 0 1 3.534-2.359 5.759 5.759 0 0 1 1.287.154c4.226.968 6.508 1.638 7.279 1.88l-.4 1.191c-.762-.235-3.026-.894-7.163-1.847-1.617-.372-2.913.179-3.364 1.415a2.541 2.541 0 0 0 1.19 3.127l.068.036c5.287 2.724 9.5 4.417 10.989 4.417a26.5 26.5 0 0 0 4.642-.7 41.574 41.574 0 0 1 5.755-.9.313.313 0 0 0 .3-.313V3.979a.315.315 0 0 0-.319-.313z" data-name="Path 604" style="fill:#08317d"/>
                </g>
            </g>
        </g>
    </g>
</svg>
